<?xml version="1.0" encoding="UTF-8"?>
<svg id="Layer_2" data-name="Layer 2" xmlns="http://www.w3.org/2000/svg" viewBox="0 0 79 79">
  <defs>
    <style>
      .cls-1 {
        stroke-width: 0px;
      }

      .cls-1, .cls-2 {
        fill: none;
      }

      .cls-2 {
        stroke: #0a1633;
        stroke-linecap: round;
        stroke-linejoin: round;
        stroke-width: 1.5px;
      }
    </style>
  </defs>
  <g id="Isolation_Mode" data-name="Isolation Mode">
    <g>
      <g>
        <path class="cls-2" d="M11.31,44.47h5.7v22.4c0,.74-.6,1.34-1.34,1.34h-3.02c-.74,0-1.34-.6-1.34-1.34v-22.4h0Z" transform="translate(43.99 6.49) rotate(45)"/>
        <polyline class="cls-2" points="34.98 23.03 34.98 12.8 68.24 12.8 74.69 19.26 74.69 63.9 34.98 63.9 34.98 52.46"/>
        <circle class="cls-2" cx="32.65" cy="37.85" r="14.44"/>
        <line class="cls-2" x1="29.67" y1="24.06" x2="29.67" y2="51.65"/>
        <polyline class="cls-2" points="68.2 12.85 68.2 19.23 74.69 19.23"/>
        <line class="cls-2" x1="44.98" y1="52.89" x2="69.6" y2="52.89"/>
        <line class="cls-2" x1="40.38" y1="58.13" x2="69.6" y2="58.13"/>
        <line class="cls-2" x1="42.91" y1="22.75" x2="69.6" y2="22.75"/>
        <line class="cls-2" x1="48.99" y1="28.02" x2="69.6" y2="28.02"/>
        <line class="cls-2" x1="51.8" y1="33.28" x2="69.6" y2="33.28"/>
        <rect class="cls-2" x="54.43" y="38.26" width="15.46" height="9.62"/>
        <g>
          <line class="cls-2" x1="34.67" y1="30.85" x2="44.7" y2="30.85"/>
          <line class="cls-2" x1="34.67" y1="37.93" x2="46.84" y2="37.93"/>
          <line class="cls-2" x1="34.67" y1="45" x2="44.7" y2="45"/>
        </g>
      </g>
      <rect class="cls-1" width="79" height="79"/>
    </g>
  </g>
</svg>