<?xml version="1.0" encoding="UTF-8"?>
<svg id="Layer_2" data-name="Layer 2" xmlns="http://www.w3.org/2000/svg" viewBox="0 0 79 79">
  <defs>
    <style>
      .cls-1, .cls-2 {
        stroke-width: 0px;
      }

      .cls-1, .cls-3 {
        fill: none;
      }

      .cls-4 {
        fill: #fff;
      }

      .cls-4, .cls-3 {
        stroke: #0a1633;
        stroke-linecap: round;
        stroke-linejoin: round;
        stroke-width: 1.5px;
      }

      .cls-2 {
        fill: #0a1633;
      }
    </style>
  </defs>
  <g id="Isolation_Mode" data-name="Isolation Mode">
    <g>
      <g>
        <path class="cls-3" d="M44.92,12.35c-.15-.45-.18-.94-.06-1.43.37-1.45,1.94-2.3,3.52-1.9,1.58.4,2.56,1.9,2.19,3.35-.12.49-.38.9-.73,1.23"/>
        <path class="cls-3" d="M47.3,12.95c-13.5-3.42-29.27,2.66-34.77,15.24-.22.51.13,1.12.68,1.01,6.39-1.35,17.89-1.63,30.02,1.45,12.18,3.09,21.56,9,26.33,12.9.42.34,1.01-.04,1.06-.58,1.23-13.67-9.63-26.54-23.32-30.01Z"/>
        <path class="cls-3" d="M12.58,28.9c2.42,2.92,9,6.09,14.54,7.99"/>
        <path class="cls-3" d="M70.12,43.63c-3.47,1.39-10.62,1.08-16.36.13"/>
        <path class="cls-3" d="M51.67,55.64c11.58,1.13,19.73,3.81,19.73,6.94,0,4.15-14.28,7.51-31.9,7.51s-31.9-3.36-31.9-7.51c0-3.15,8.23-5.84,19.91-6.96"/>
        <path class="cls-4" d="M52.53,19.96c3.64,1.85,7.23,5.21,9.19,8.37"/>
        <path class="cls-4" d="M63.62,31.61c.27.45.78,1.65.94,2.25"/>
        <path class="cls-2" d="M47.53,48.7l-1.27,5.17c-.47.12-.92.12-1.43.16.35-2.66,1.4-5.17,1.43-8.02,0-.25-.29-.34-.47-.4-.44.06-1.01-.16-1.21.34-.06,2.88-1.11,5.39-1.58,8.12l-2.31.06-.1-.12c.16-2.82-.1-5.48-.22-8.15-.03-.15-.13-.34-.25-.46-.51.15-1.11-.06-1.36.46,0,2.73.32,5.45.16,8.21l-2.28-.06c-.85-2.66-1.55-5.42-2.22-8.18-.22-.68-.89-.12-1.33-.19-.6.25-.13.84-.13,1.27.51,2.35,1.11,4.68,1.84,6.94l-1.77-.25c-.79-3.72-2.06-7.22-1.87-11.18,0-1.05.54-2.04,1.55-2.42,3.49-1.18,7.67-1.49,11.47-1.08,1.17.15,2.28.62,3.07,1.52,1.71,2.48.7,5.51.29,8.27M45.85,57.53c-4.09.37-8.59.15-12.64-.25-.16-.65-.03-1.24.03-1.83,4.28.43,8.46.46,12.8.09l-.19,1.98ZM49.5,40.33c-2.35-4.34-8.08-3.66-12.39-3.35-2.88.59-6.43.84-7.79,3.78-.57,4.09,1.05,8.27,1.84,12.3.44,1.8.22,3.87.19,5.7l3.9.56c4.4-.03,8.08.4,12.17-.37-.03-2.51.38-5.02,1.14-7.34.82-3.59,2.12-7.65.95-11.28"/>
      </g>
      <rect class="cls-1" width="79" height="79"/>
    </g>
  </g>
</svg>