<?xml version="1.0" encoding="UTF-8"?>
<svg id="Layer_2" data-name="Layer 2" xmlns="http://www.w3.org/2000/svg" viewBox="0 0 79 79">
  <defs>
    <style>
      .cls-1 {
        stroke-width: 0px;
      }

      .cls-1, .cls-2, .cls-3 {
        fill: none;
      }

      .cls-2, .cls-3 {
        stroke: #0a1633;
        stroke-linejoin: round;
        stroke-width: 1.5px;
      }

      .cls-3 {
        stroke-linecap: round;
      }
    </style>
  </defs>
  <g id="Isolation_Mode" data-name="Isolation Mode">
    <g>
      <g>
        <path class="cls-2" d="M8.23,29.23s0,.01,0,.02c.12,0,.23-.02.35-.02,10.72,0,19.41,8.69,19.42,19.4"/>
        <line class="cls-2" x1="13.97" y1="15.78" x2="35.31" y2="37.12"/>
        <line class="cls-2" x1="13.97" y1="43.25" x2="41.43" y2="15.78"/>
        <g>
          <path class="cls-2" d="M68.48,24.36c6.67,5.81,4.12,20.9-5.6,32.07-9.51,10.94-24.56,15.58-30.99,9.98-6.2-5.39-3.92-21.14,5.6-32.07,9.66-11.1,24.51-15.62,30.99-9.98Z"/>
          <g>
            <path class="cls-3" d="M36.32,53.76c1.95-3.81,6.46-9.69,8.99-12.6,2.54-2.92,7.52-8.12,11.24-10.65"/>
            <line class="cls-3" x1="36.42" y1="49.15" x2="39.51" y2="51.83"/>
            <line class="cls-3" x1="39.95" y1="44.35" x2="43.03" y2="47.03"/>
            <line class="cls-3" x1="43.73" y1="39.77" x2="46.81" y2="42.45"/>
            <line class="cls-3" x1="47.74" y1="35.39" x2="50.83" y2="38.08"/>
            <line class="cls-3" x1="52.01" y1="31.23" x2="55.09" y2="33.92"/>
          </g>
        </g>
        <g>
          <circle class="cls-2" cx="13.97" cy="58.71" r="7.17"/>
          <path class="cls-2" d="M14.3,65.77c-1.79-1.59-1.74-4.57.12-6.67,1.86-2.09,4.81-2.5,6.6-.92"/>
          <path class="cls-2" d="M12,51.91c1.34,1.19,1.3,3.42-.09,4.98s-3.6,1.87-4.93.69"/>
        </g>
        <path class="cls-2" d="M37.49,34.35c2.76-3.18,5.95-5.81,9.25-7.82-1.49-9.25-9.48-16.32-19.15-16.32-10.73,0-19.42,8.7-19.42,19.42s8.7,19.42,19.42,19.42c.68,0,1.34-.04,2-.1,1.4-4.98,4.06-10.18,7.9-14.6Z"/>
        <path class="cls-2" d="M27.24,10.22c0,9.41,6.71,17.25,15.6,19.02"/>
        <path class="cls-2" d="M68.48,24.36c6.67,5.81,4.12,20.9-5.6,32.07-9.51,10.94-24.56,15.58-30.99,9.98-6.2-5.39-3.92-21.14,5.6-32.07,9.66-11.1,24.51-15.62,30.99-9.98Z"/>
      </g>
      <rect class="cls-1" width="79" height="79"/>
    </g>
  </g>
</svg>