
<svg fill="none" xmlns="http://www.w3.org/2000/svg" viewBox="0 0 24 24"><path d="M12 24c6.627 0 12-5.373 12-12S18.627 0 12 0 0 5.373 0 12s5.373 12 12 12z" fill="#1972B2"/><path d="M16.428 9.991h-2.874l-.08-.057a.7.7 0 0 1 .025-.049l.02-.038.381-.793a4 4 0 0 0 .337-1.041c.058-.336.066-.633.028-.994-.12-1.163-.833-2.386-1.96-2.474a1.18 1.18 0 0 0-.917.33 1.2 1.2 0 0 0-.36.82l-.045 1.27c-.051.409-.289.891-.746 1.515a4.078 4.078 0 0 1-.623.674 5.067 5.067 0 0 0-2.56 8.562c.915.908 2.175.843 3.566.843h3.365a1.16 1.16 0 0 1 .136-1.93 1.163 1.163 0 0 1-.136-2.09 1.162 1.162 0 0 1-.215-2.112 1.06 1.06 0 0 1-.726-1.004c0-.577.464-1.046 1.038-1.057l.006-.001h1.908c.039 0 .07.046.07.104 0 .058-.031.104-.07.104h-1.894a.85.85 0 0 0 0 1.7h3.622a1.635 1.635 0 0 0 .335-.991v-.228c0-.991-.731-1.063-1.63-1.063z" fill="#fff"/><path d="M13.76 17.64c0 .462.34.847.783.92h1.298c.775 0 1.43.052 1.523-.707a1.52 1.52 0 0 0-.324-1.134c.003-.002-2.459-.006-2.459-.006a.934.934 0 0 0-.821.926zm.585-5.139a.934.934 0 0 0 0 1.867l3.23.02a1.502 1.502 0 0 0 .42-.904 1.521 1.521 0 0 0-.259-1.005l-3.39.022zm-.725 3.05c0 .514.42.933.934.933l2.725.017a1.498 1.498 0 0 0 .37-.815 1.515 1.515 0 0 0-.29-1.087l-2.805.019a.934.934 0 0 0-.933.933z" fill="#fff"/></svg>